<?xml version="1.0" encoding="UTF-8" standalone="no"?>
<!DOCTYPE svg PUBLIC "-//W3C//DTD SVG 1.1//EN" "http://www.w3.org/Graphics/SVG/1.1/DTD/svg11.dtd">
<svg width="100%" height="100%" viewBox="0 0 213 224" version="1.1" xmlns="http://www.w3.org/2000/svg" xmlns:xlink="http://www.w3.org/1999/xlink" xml:space="preserve" xmlns:serif="http://www.serif.com/" style="fill-rule:evenodd;clip-rule:evenodd;stroke-linejoin:round;stroke-miterlimit:2;">
    <g>
        <g>
            <path d="M1.5,0L211.999,0C212.239,0.144 211.999,0.217 211.999,3.5L211.999,222.999C211.688,223.31 211.6,222.999 206.5,222.999L0,222.999C-0.429,222.742 0,222 0,221.5L0,-0C0.354,-0.354 1.146,0.354 1.5,0Z" style="fill:white;"/>
            <path id="Body-Background" serif:id="Body Background" d="M121.325,186.727C120.967,186.719 120.857,186.05 120.5,186.042C120.367,186.039 119.817,186.027 119.834,187.565C119.842,188.324 120.912,192.212 121.022,192.612C123.156,200.372 127.64,200.598 127.253,209.49C126.862,218.48 116.944,222.282 113.272,218.734C110.642,216.193 113.346,213.151 111.6,209.448C109.971,205.993 102.298,202.629 101.622,191.485C101.375,187.413 102.122,186.425 100.523,186.586C99.758,186.663 99.862,186.87 99.644,187.592C98.04,192.906 97.262,194.956 91.693,201.656C87.153,207.116 87.606,207.638 88.423,212.513C89.138,216.772 85.706,219.189 80.432,217.735C76.951,216.775 74.313,213.381 73.552,211.478C70.362,203.491 75.624,196.983 76.937,194.759C81.441,187.125 81.317,186.508 80.594,186.405C78.591,186.117 79.005,187.239 75.661,189.732C71.508,192.829 67.229,194.071 66.438,194.3C55.799,197.388 54.783,197.714 53.803,202.562C53.721,202.967 53.163,205.729 50.511,206.536C45.555,208.044 39.449,201.669 40.603,194.516C42.471,182.931 53.309,182.573 58.416,180.32C58.899,180.107 65.218,177.319 63.288,175.873C62.437,175.235 62.389,175.779 61.446,176.271C51.533,181.45 44.362,178.381 39.479,176.553C33.363,174.263 33.915,179.584 30.468,180.375C24.423,181.762 20.292,172.101 25.949,164.845C31.568,157.637 41.028,160.279 44.475,160.75C48.603,161.313 51.928,160.51 52.045,160.15C52.091,160.011 51.543,158.854 51.367,158.757C50.831,158.461 47.516,159.13 42.573,156.366C29.372,148.986 32.232,139.995 26.24,135.905C25.95,135.707 19.209,133.498 21.275,126.427C23.147,120.016 33.197,117.537 41.205,124.825C41.792,125.359 41.913,125.469 47.482,132.517C49.099,134.563 53.951,137.329 54.502,137.231C54.65,137.204 54.57,136.918 54.681,136.817C54.866,136.648 55.239,136.691 55.341,136.463C55.467,136.182 55.325,135.842 55.25,135.543C54.847,133.938 54.297,134.066 53.43,127.508C52.105,117.477 56.307,105.31 59.124,100.298C61.295,96.436 65.378,88.561 75.338,81.272C81.352,76.872 86.199,75.222 88.457,74.383C100.569,69.883 123.708,68.263 142.55,82.437C145.471,84.634 149.23,88.673 149.771,89.255C158.291,98.412 161.369,111.177 161.659,118.492C162.329,135.421 156.215,140.775 156.407,142.518C156.428,142.712 157.287,143.36 157.488,143.329C157.833,143.276 157.877,143.269 161.202,141.058C165.095,138.469 167.718,133.904 170.868,130.866C180.995,121.097 191.842,125.246 192.095,132.519C192.283,137.892 187.205,140.528 186.796,140.852C181.775,144.823 183.15,151.287 175.596,158.601C166.829,167.09 157.599,165.711 156.807,166.747C156.419,167.254 156.653,167.319 157.147,167.719C157.316,167.856 157.411,168.096 157.614,168.176C160.313,169.233 171.388,165.528 178.401,172.598C183.943,178.184 183.708,188.615 176.498,190.492C171.909,191.686 170.681,187.184 170.343,186.599C168.587,183.558 162.637,185.455 161.534,185.67C148.52,188.213 143.882,181.593 142.446,182.278C141.104,182.918 141.46,183.472 142.615,184.399C145.203,186.475 153.152,189.137 155.699,191.249C166.662,200.339 157.772,214.121 150.579,212.177C145.855,210.9 147.995,206.319 145.342,203.663C141.474,199.788 135.005,201.075 127.396,194.625C122.69,190.636 123.397,190.054 121.325,186.727Z"/>
            <path id="Body" d="M30.089,133.994C28.481,132.816 28.493,132.82 28.352,132.721C27.224,131.934 24.607,130.99 24.871,128.527C25.401,123.581 32.127,124.476 33.435,124.793C34.297,125.002 38.115,125.927 42.015,131.821C46.968,139.308 50.743,140.308 57.623,142.204C59.159,142.869 59.147,143.468 60.699,142.847C60.937,142.752 61.05,142.449 61.287,142.354C61.299,142.058 61.526,141.798 61.538,141.503C61.648,138.717 55.866,134.858 57.331,118.483C58.106,109.824 62.786,101.428 64.133,99.275L65.335,97.39C66.568,95.649 67.605,93.743 71.667,89.664C72.682,88.644 78.497,82.803 86.472,79.435C90.875,77.576 90.867,77.591 95.484,76.421C101.553,75.413 102.789,75.316 108.501,75.285C113.543,75.411 113.522,75.578 116.581,76.003C117.39,76.123 122.475,76.876 126.472,78.566C129.847,79.994 132.428,80.874 135.414,82.647C139.584,85.411 139.716,85.219 142.888,88.083C146.123,91.264 147.016,91.697 150.83,97.294C151.431,98.25 151.421,98.239 151.96,99.249C154.355,103.588 155.415,106.772 155.642,107.455L155.764,107.917C155.891,108.032 156.023,108.145 155.898,108.395L155.89,108.41C161.395,130.246 152.938,141.187 150.035,145.058C149.862,145.206 148.575,146.311 147.9,146.934C145.616,149.041 147.607,151.338 150.248,150.045C151.87,149.251 151.618,148.658 154.434,148.148C159.068,147.31 163.498,144.641 165.607,142.616C170.738,137.691 170.01,137.004 175.306,132.269C175.733,131.927 178.328,129.843 181.466,129.306C181.884,129.234 184.833,128.73 186.676,130.266C188.44,131.735 187.921,133.377 187.947,133.57C187.817,133.893 187.807,134.257 187.677,134.581C186.836,136.67 184.226,136.79 180.9,141.734C179.3,144.959 179.305,144.937 178.002,148.286C176.964,150.543 174.233,157.113 165.555,160.635C152.818,165.803 148.326,160.575 146.734,162.704C145.248,164.692 150.107,168.562 150.843,169.006C158.816,173.822 164.77,171.327 169.525,172.386C180.635,174.861 178.713,185.384 176.45,186.4C173.705,187.633 174.316,182.211 169.6,181.11C167.68,180.663 165.461,181.049 165.439,181.051C159.826,181.954 155.702,183.776 149.468,181.585C142.27,179.054 139.053,175.021 138.038,173.928C131.138,166.494 132.846,177.884 137.293,183.653C141.984,189.737 145.685,190.211 150.442,192.619C162.354,198.648 155.114,209.788 151.774,208.03C151.304,207.783 150.743,205.67 150.686,205.454C150.052,203.066 148.128,200.556 146.505,199.494C139.826,195.122 135.899,197.171 128.624,190.371C126.602,188.273 126.666,188.23 125.058,185.796C123.123,182.992 122.783,182.436 120.913,177.349C120.384,176.166 120.562,176.061 119.736,175.218C119.624,175.103 118.801,174.263 117.757,174.899C116.661,175.568 115.829,180.64 116.046,187.518C116.395,198.526 120.687,199.441 122.7,205.434C125.564,213.962 117.225,218.451 116.17,215.682C115.762,214.609 116.005,214.587 116.137,213.46C116.538,210.029 115.332,207.982 115.205,207.649C113.289,204.383 112.447,203.96 109.861,201.166C104.979,195.889 105.339,189.005 104.592,182.489C104.092,179.406 103.607,172.738 99.848,177.729C99.21,178.909 98.655,179.312 96.9,184.63C93.244,195.706 90.98,195.638 86.654,201.61C81.763,208.363 84.73,211.562 84.369,213.458C84.026,215.265 79.254,214.271 77.552,210.475C74.787,204.306 78.996,198.977 80.957,195.765C84.905,189.295 87.345,175.508 87.398,174.494C87.411,174.254 87.54,171.771 85.425,172.221C83.089,172.717 80.254,184.788 67.602,189.79C67.026,189.982 64.498,190.824 60.373,192.102C51.717,194.783 51.486,196.467 50.081,201.353C49.058,204.914 44.26,201.198 44.109,196.513C44.091,195.933 43.995,192.954 46.841,189.791C52.123,183.919 60.332,187.296 69.044,176.172C70.959,173.278 71.501,171.959 71.662,171.567C71.846,171.121 73.64,166.759 72.418,165.58C70.574,163.801 67.593,168.566 64.546,170.561C64.397,170.659 63.646,171.15 62.723,171.831C51.366,179.094 42.219,172.623 37.54,172.156C31.967,171.6 30.746,176.085 29.461,176.381C26.845,176.983 26.34,171.58 27.917,168.72C31.386,162.425 38.555,163.884 40.555,164.135C49.91,165.411 53.122,164.515 58.52,160.524C58.858,160.274 62.834,157.335 60.419,155.62C58.9,154.541 51.666,157.412 43.587,152.366C42.893,151.868 40.159,150.248 38.174,147.757C33.597,142.014 33.864,137.605 30.089,133.994Z" style="fill:rgb(248,164,137);"/>
            <path d="M69.752,27.348C71.986,31.325 78.033,43.006 78.741,44.374C81.594,49.885 80.474,51.867 74.388,55.301C70.872,57.286 70.802,57.133 67.327,59.213C66.621,59.636 66.568,59.535 58.335,64.209C54.264,66.52 50.64,67.568 47.636,62.421C46.315,60.159 44.001,55.96 43.69,55.396C42.953,54.06 38.275,45.229 37.807,44.344C32.947,35.17 40.14,33.647 46.675,29.806C48.852,28.527 51.629,27.238 57.309,24.149C59.19,23.125 65.157,19.352 68.597,25.441C68.684,25.596 69.17,26.455 69.752,27.348Z"/>
            <g transform="matrix(0.803768,0,0,0.803768,11.425183,8.584905)">
                <path d="M69.752,27.348C71.986,31.325 78.033,43.006 78.741,44.374C81.594,49.885 80.474,51.867 74.388,55.301C70.872,57.286 70.802,57.133 67.327,59.213C66.621,59.636 66.568,59.535 58.335,64.209C54.264,66.52 50.64,67.568 47.636,62.421C46.315,60.159 44.001,55.96 43.69,55.396C42.953,54.06 38.275,45.229 37.807,44.344C32.947,35.17 40.14,33.647 46.675,29.806C48.852,28.527 51.629,27.238 57.309,24.149C59.19,23.125 65.157,19.352 68.597,25.441C68.684,25.596 69.17,26.455 69.752,27.348Z" style="fill:rgb(251,178,66);"/>
            </g>
            <path d="M95.52,44.02C95.465,44.006 92.022,43.84 90.531,40.486C89.288,37.692 88.635,31.568 88.622,31.481C88.139,28.417 86.569,16.803 86.534,16.497C85.698,9.064 91.785,8.7 93.481,8.385C93.651,8.353 108.974,6.032 110.549,5.829C111.133,5.754 119.243,3.36 121.494,8.503C121.789,9.176 122.124,9.941 123.062,17.552C124.772,31.423 127.407,36.681 122.492,39.488C121.431,40.094 120.631,40.551 107.466,42.265C101.475,43.046 101.547,43.488 95.52,44.02Z"/>
            <g transform="matrix(0.777398,0,0,0.777398,23.570662,5.479087)">
                <path d="M95.52,44.02C95.465,44.006 92.022,43.84 90.531,40.486C89.288,37.692 88.635,31.568 88.622,31.481C88.139,28.417 86.569,16.803 86.534,16.497C85.698,9.064 91.785,8.7 93.481,8.385C93.651,8.353 108.974,6.032 110.549,5.829C111.133,5.754 119.243,3.36 121.494,8.503C121.789,9.176 122.124,9.941 123.062,17.552C124.772,31.423 127.407,36.681 122.492,39.488C121.431,40.094 120.631,40.551 107.466,42.265C101.475,43.046 101.547,43.488 95.52,44.02Z" style="fill:rgb(230,57,70);"/>
            </g>
            <path d="M152.467,24.057C154.421,24.241 154.414,24.211 154.577,24.255C156.567,24.794 173.024,33.901 173.626,34.288C174.566,34.892 178.762,36.816 179.748,39.394C181.123,42.993 179.778,43.314 171.119,59.288C169.932,61.478 169.783,61.376 168.597,63.557C164.91,70.336 159.393,67.28 155.341,64.765C153.741,63.772 146.973,60.126 146.361,59.746C145.092,58.959 139.659,55.974 139.339,55.759C132.686,51.266 138.38,44.941 140.563,40.533C143.547,34.507 143.795,34.659 146.852,28.681C149.273,23.948 151.308,24.346 152.467,24.057Z"/>
            <g transform="matrix(0.810809,0,0,0.810809,29.932224,8.677868)">
                <path d="M152.467,24.057C154.421,24.241 154.414,24.211 154.577,24.255C156.567,24.794 173.024,33.901 173.626,34.288C174.566,34.892 178.762,36.816 179.748,39.394C181.123,42.993 179.778,43.314 171.119,59.288C169.932,61.478 169.783,61.376 168.597,63.557C164.91,70.336 159.393,67.28 155.341,64.765C153.741,63.772 146.973,60.126 146.361,59.746C145.092,58.959 139.659,55.974 139.339,55.759C132.686,51.266 138.38,44.941 140.563,40.533C143.547,34.507 143.795,34.659 146.852,28.681C149.273,23.948 151.308,24.346 152.467,24.057Z" style="fill:rgb(69,123,157);"/>
            </g>
            <path d="M35.436,113.048C22.79,114.696 15.637,117.92 12.832,112.343C11.828,110.345 10.956,99.466 9.424,91.513C7.14,79.663 14.239,81.632 25.515,79.594C28.997,78.965 28.999,79.093 32.468,78.35C37.148,77.347 40.123,77.593 42.024,80.772C43.214,82.761 43.15,87.672 44.58,94.484C45.502,98.877 46.06,103.732 46.153,104.541C46.967,111.633 41.946,112.04 35.436,113.048Z"/>
            <g transform="matrix(0.810661,0,0,0.810661,5.22921,18.123585)">
                <path d="M35.436,113.048C22.79,114.696 15.637,117.92 12.832,112.343C11.828,110.345 10.956,99.466 9.424,91.513C7.14,79.663 14.239,81.632 25.515,79.594C28.997,78.965 28.999,79.093 32.468,78.35C37.148,77.347 40.123,77.593 42.024,80.772C43.214,82.761 43.15,87.672 44.58,94.484C45.502,98.877 46.06,103.732 46.153,104.541C46.967,111.633 41.946,112.04 35.436,113.048Z" style="fill:rgb(134,206,236);"/>
            </g>
            <path d="M168.924,94.585C170.975,86.335 170.796,84.336 171.703,82.606C173.587,79.015 177.425,79.721 177.48,79.725C179.176,79.846 192.476,82.408 192.517,82.417C200.088,84.081 206.662,84.132 204.693,92.549C203.173,99.044 203.261,99.043 201.853,105.576C200.532,111.711 200.26,116.716 195.503,117.517C193.22,117.901 182.967,115.268 174.433,113.859C163.589,112.069 166.516,106.893 168.924,94.585Z"/>
            <g transform="matrix(0.820265,0,0,0.820265,33.404231,17.723755)">
                <path d="M168.924,94.585C170.975,86.335 170.796,84.336 171.703,82.606C173.587,79.015 177.425,79.721 177.48,79.725C179.176,79.846 192.476,82.408 192.517,82.417C200.088,84.081 206.662,84.132 204.693,92.549C203.173,99.044 203.261,99.043 201.853,105.576C200.532,111.711 200.26,116.716 195.503,117.517C193.22,117.901 182.967,115.268 174.433,113.859C163.589,112.069 166.516,106.893 168.924,94.585Z" style="fill:rgb(114,187,75);"/>
            </g>
            <g id="Mouth">
                <path d="M92.905,127.689C94.822,125.103 95.471,126.319 98.399,127.701C103.207,129.97 106.522,128.949 107.568,128.785C108.209,128.655 108.813,128.376 109.454,128.246C115.316,127.057 112.372,142.287 101.502,142.145C96.89,142.085 90.911,137.27 92.905,127.689Z"/>
                <path d="M101.524,134.665C101.922,134.65 105.774,134.507 106.409,135.568C107.034,136.614 105.931,137.635 105.797,137.758C102.84,140.494 99.836,138.938 99.375,138.699C97.489,137.723 97.746,136.275 97.994,135.939C98.349,135.459 101.233,134.738 101.524,134.665Z" style="fill:rgb(247,131,89);"/>
            </g>
            <g id="Right-Eye" serif:id="Right Eye">
                <path d="M123.403,133.722C122.627,133.215 121.703,132.998 120.177,130.699C119.984,130.408 118.828,128.666 118.98,126.515C119.557,118.314 124.688,117.903 125.556,117.833C135.279,117.055 134.859,130.621 129.481,133.468C126.267,135.169 124.461,134.021 123.403,133.722Z"/>
                <path d="M125.55,123.529C125.375,123.679 125.317,123.938 125.142,124.087C124.135,124.946 122.213,124.324 122.565,122.508C122.747,121.571 124.129,120.895 124.414,120.918C125.778,121.027 125.81,122.319 125.814,122.487C125.823,122.845 125.541,123.171 125.55,123.529Z" style="fill:rgb(250,248,236);"/>
            </g>
            <g id="Left-Eye" serif:id="Left Eye">
                <path d="M79.59,112.949C80.082,112.933 80.992,112.699 82.623,113.13C87.579,114.437 87.576,118.848 87.576,119.493C87.573,124.236 85.287,126.848 85.093,127.156C78.227,134.103 69.636,124.456 75.589,115.566C77.875,113.108 78.686,113.311 79.59,112.949Z"/>
                <path d="M84.237,120.048C83.988,120.043 83.755,120.205 83.506,120.199C81.475,120.155 81.712,116.352 83.499,116.485C84.247,116.541 85.445,117.971 84.647,119.632C84.562,119.807 84.321,119.873 84.237,120.048Z" style="fill:rgb(248,246,236);"/>
            </g>
            <path id="Left-Cheek" serif:id="Left Cheek" d="M73.444,137.428C73.051,137.623 72.718,137.926 72.324,138.121L70.515,138.615C70.177,138.606 69.841,138.67 69.503,138.661C67.517,138.608 63.288,137.524 62.62,133.484C61.581,127.198 69.18,124.883 72.723,128.179C75.081,130.371 78.415,132.873 73.444,137.428Z" style="fill:rgb(242,124,93);"/>
            <path id="Right-Cheek" serif:id="Right Cheek" d="M140.875,142.726C140.831,142.77 140.041,144.279 137.391,145.172C132.374,146.864 126.167,142.573 128.756,137.637C129.253,136.69 130.539,135.899 130.724,135.786C130.957,135.643 131.266,135.624 131.468,135.44C131.613,135.309 131.532,135.003 131.699,134.901C131.955,134.744 132.3,134.841 132.588,134.754C133.136,134.588 135.916,132.923 139.6,135.37C141.268,136.478 141.611,138.176 141.671,138.468C142.067,140.427 141.764,140.427 141.171,142.324L140.875,142.726Z" style="fill:rgb(242,124,93);"/>
            <g transform="matrix(1.457374,0,0,1.202797,-13.527807,-15.145055)">
                <path d="M29.359,68.439C28.644,70.094 28.711,70.115 28.422,70.441C26.789,72.279 24.616,71.002 25.352,68.462C26.595,64.175 31.368,56.912 33.508,56.539C34.555,56.357 37.32,57.242 34.469,60.472C32.127,63.127 31.459,64.111 29.359,68.439Z"/>
            </g>
            <g transform="matrix(1.29286,0,0,1.29286,-52.460062,-18.644307)">
                <path d="M188.814,70.4C188.868,70.79 189.043,71.157 189.097,71.548C189.426,73.927 187.729,73.913 187.501,73.911C185.535,73.895 186.235,71.714 181.955,65.203C181.12,63.934 178.793,60.847 180.696,59.815C182.538,58.817 184.549,62.119 184.719,62.344C186.558,64.771 188.545,69.729 188.814,70.4Z"/>
            </g>
            <g transform="matrix(1.731159,0,0,1.451424,-98.550698,-13.192686)">
                <path d="M135.623,25.101C135.924,25.213 136.24,25.283 136.54,25.396C140.473,26.871 139.201,30.333 136.467,29.611C136.182,29.536 132.915,28.154 132.489,27.508C131.816,26.487 132.436,25.209 132.824,24.987C133.705,24.485 133.759,24.808 135.623,25.101Z"/>
            </g>
        </g>
    </g>
</svg>
