<?xml version="1.0" encoding="UTF-8" standalone="no"?>
<!DOCTYPE svg PUBLIC "-//W3C//DTD SVG 1.1//EN" "http://www.w3.org/Graphics/SVG/1.1/DTD/svg11.dtd">
<svg width="100%" height="100%" viewBox="0 0 800 978" version="1.1" xmlns="http://www.w3.org/2000/svg" xmlns:xlink="http://www.w3.org/1999/xlink" xml:space="preserve" xmlns:serif="http://www.serif.com/" style="fill-rule:evenodd;clip-rule:evenodd;">
    <g id="Lines" transform="matrix(1,0,0,1,-74.175681,14.030776)">
        <g transform="matrix(1,0,0,1,82.397942,3.660111)">
            <path d="M410,68L410,98" style="fill:none;stroke:rgb(115,114,108);stroke-width:3px;"/>
        </g>
        <g transform="matrix(0.557143,0,0,1,182.68068,2.464829)">
            <path d="M310,118L170,118" style="fill:none;stroke:rgb(115,114,108);stroke-width:3.71px;"/>
        </g>
        <g transform="matrix(0.557143,0,0,1,79.691165,600.348184)">
            <path d="M310,118L170,118" style="fill:none;stroke:rgb(115,114,108);stroke-width:3.71px;"/>
        </g>
        <g transform="matrix(1,0,0,0.704929,108.364869,107.886714)">
            <path d="M170,118L170,168" style="fill:none;stroke:rgb(115,114,108);stroke-width:3.47px;"/>
        </g>
        <g transform="matrix(1,0,0,0.704929,545.193619,105.886714)">
            <path d="M170,118L170,168" style="fill:none;stroke:rgb(115,114,108);stroke-width:3.47px;"/>
        </g>
        <g transform="matrix(1,0,0,0.704929,544.33522,36.584952)">
            <path d="M170,118L170,168" style="fill:none;stroke:rgb(115,114,108);stroke-width:3.47px;"/>
        </g>
        <g transform="matrix(0.551547,0,0,1,355.829986,2.464829)">
            <path d="M510,118L650,118" style="fill:none;stroke:rgb(115,114,108);stroke-width:3.72px;"/>
        </g>
        <g transform="matrix(1,0,0,1.73045,108.364869,-332.562177)">
            <path d="M170,262L170,280" style="fill:none;stroke:rgb(115,114,108);stroke-width:2.12px;"/>
        </g>
        <g transform="matrix(1,0,0,1.598247,71.555871,-92.285738)">
            <path d="M650,320L650,348" style="fill:none;stroke:rgb(115,114,108);stroke-width:2.25px;"/>
        </g>
        <g transform="matrix(1,0,0,1.598247,36.555871,-144.285738)">
            <path d="M650,320L650,348" style="fill:none;stroke:rgb(115,114,108);stroke-width:2.25px;"/>
        </g>
        <g transform="matrix(1,0,0,1.598247,36.555871,-227.285738)">
            <path d="M650,320L650,348" style="fill:none;stroke:rgb(115,114,108);stroke-width:2.25px;"/>
        </g>
        <g transform="matrix(1,0,0,1.598247,-371.035217,-227.285738)">
            <path d="M650,320L650,348" style="fill:none;stroke:rgb(115,114,108);stroke-width:2.25px;"/>
        </g>
        <g transform="matrix(1,0,0,1.598247,71.555871,-23.285738)">
            <path d="M650,320L650,348" style="fill:none;stroke:rgb(115,114,108);stroke-width:2.25px;"/>
        </g>
        <g transform="matrix(1,0,0,1.598247,71.555871,51.714262)">
            <path d="M650,320L650,348" style="fill:none;stroke:rgb(115,114,108);stroke-width:2.25px;"/>
        </g>
        <g transform="matrix(1,0,0,1.598247,-245.547319,-93.661194)">
            <path d="M650,320L650,348" style="fill:none;stroke:rgb(115,114,108);stroke-width:2.25px;"/>
        </g>
        <g transform="matrix(1,0,0,1.598247,-245.547319,-23.661194)">
            <path d="M650,320L650,348" style="fill:none;stroke:rgb(115,114,108);stroke-width:2.25px;"/>
        </g>
        <g transform="matrix(0.727778,0,0,0.88844,51.848413,15.571743)">
            <path d="M170,402L170,790" style="fill:none;stroke:rgb(115,114,108);stroke-width:3.69px;"/>
        </g>
        <g transform="matrix(1,0,0,0.546145,-151.362154,201.23266)">
            <path d="M520,614L520,790" style="fill:none;stroke:rgb(115,114,108);stroke-width:3.72px;"/>
        </g>
        <g transform="matrix(5.676053,0,0,1,-2263.292156,-370.846751)">
            <path d="M520,790L470,790" style="fill:none;stroke:rgb(115,114,108);stroke-width:0.74px;"/>
        </g>
        <g transform="matrix(0.995932,0,0,0.34218,-378.464285,443.111946)">
            <path d="M790,548L790,750" style="fill:none;stroke:rgb(115,114,108);stroke-width:4.03px;"/>
        </g>
        <g transform="matrix(1,0,0,0.274523,-385.547319,681.806941)">
            <path d="M790,548L790,750" style="fill:none;stroke:rgb(115,114,108);stroke-width:4.09px;"/>
        </g>
        <g transform="matrix(1,0,0,0.274523,-385.547319,577.817426)">
            <path d="M790,548L790,750" style="fill:none;stroke:rgb(115,114,108);stroke-width:4.09px;"/>
        </g>
        <g transform="matrix(0.736618,0,0,1,-14.403312,-118.253814)">
            <path d="M790,750L520,750" style="fill:none;stroke:rgb(115,114,108);stroke-width:3.42px;"/>
        </g>
    </g>
    <g id="Subject-Grouping-Constraint" serif:id="Subject Grouping Constraint" transform="matrix(1,0,0,1,13.079889,-34.61599)">
        <g transform="matrix(1.2478,0,0,1,-98.043797,52.19826)">
            <path d="M530,118C530,129.038 522.818,138 513.972,138L306.028,138C297.182,138 290,129.038 290,118C290,106.962 297.182,98 306.028,98L513.972,98C522.818,98 530,106.962 530,118Z" style="fill:rgb(255,248,230);stroke:rgb(133,79,11);stroke-width:0.88px;"/>
        </g>
        <g transform="matrix(1,0,0,1,413.60771,176.374041)">
            <text x="-126.748px" y="0px" style="font-family:'ArialMT', 'Arial', sans-serif;font-size:20px;fill:rgb(99,56,6);">Subject grouping constraint?</text>
        </g>
    </g>
    <g id="CSV-metadata-input" serif:id="CSV metadata input" transform="matrix(1,0,0,1,13.079889,-33.61599)">
        <g id="CSV-metadata-input-container" serif:id="CSV metadata input container" transform="matrix(1.2,0,0,1.174312,-80.804718,43.129751)">
            <path d="M510,26.812L510,61.188C510,64.947 507.013,68 503.333,68L316.667,68C312.987,68 310,64.947 310,61.188L310,26.812C310,23.053 312.987,20 316.667,20L503.333,20C507.013,20 510,23.053 510,26.812Z" style="fill:rgb(241,239,232);stroke:rgb(95,94,90);stroke-width:0.5px;"/>
        </g>
        <g transform="matrix(1,0,0,1,411.195282,92.982962)">
            <text x="-102.922px" y="0px" style="font-family:'ArialMT', 'Arial', sans-serif;font-size:23px;fill:rgb(68,68,65);">CSV metadata input</text>
        </g>
        <g transform="matrix(1,0,0,1,411.195282,112.982962)">
            <text x="-105.297px" y="0px" style="font-family:'ArialMT', 'Arial', sans-serif;font-size:18px;fill:rgb(95,94,90);">Sample ID + covariate key</text>
        </g>
    </g>
    <g transform="matrix(1,0,0,1,204.07493,182.693324)">
        <text x="-13.33px" y="0px" style="font-family:'Arial-BoldMT', 'Arial', sans-serif;font-weight:700;font-size:20px;fill:rgb(61,61,58);">No</text>
    </g>
    <g transform="matrix(1,0,0,1,640.657586,182.693324)">
        <text x="-17.241px" y="0px" style="font-family:'Arial-BoldMT', 'Arial', sans-serif;font-weight:700;font-size:20px;fill:rgb(61,61,58);">Y<tspan x="-5.005px 6.118px " y="0px 0px ">es</tspan></text>
    </g>
    <g transform="matrix(1,0,0,1,204.07493,199.310999)">
        <text x="-68.032px" y="0px" style="font-family:'ArialMT', 'Arial', sans-serif;font-size:18px;fill:rgb(20,20,19);">Default algorithm</text>
    </g>
    <g id="Repeated-measures" transform="matrix(1,0,0,1,640.657586,198.075648)">
        <text x="-81.545px" y="0px" style="font-family:'ArialMT', 'Arial', sans-serif;font-size:18px;fill:rgb(20,20,19);">Repeated-measures</text>
    </g>
    <g id="Plate-distribution" serif:id="Plate distribution" transform="matrix(1,0,0,1,-74.999999,-46.784463)">
        <g transform="matrix(1.727554,0,0,1.160714,-1.653265,43.022844)">
            <path d="M280,212.892L280,255.108C280,258.912 277.925,262 275.369,262L64.631,262C62.075,262 60,258.912 60,255.108L60,212.892C60,209.088 62.075,206 64.631,206L275.369,206C277.925,206 280,209.088 280,212.892Z" style="fill:rgb(230,241,251);stroke:rgb(24,95,165);stroke-width:0.5px;"/>
        </g>
        <g transform="matrix(1,0,0,1,291.527075,310.79649)">
            <text x="-93.387px" y="0px" style="font-family:'ArialMT', 'Arial', sans-serif;font-size:24px;fill:rgb(12,68,124);">Plate distribution*</text>
        </g>
        <g transform="matrix(1,0,0,1,291.683814,331.932721)">
            <text x="-181.617px" y="0px" style="font-family:'ArialMT', 'Arial', sans-serif;font-size:18px;fill:rgb(24,95,165);">Proportional to global</text>
            <text x="-6.504px" y="0px" style="font-family:'Arial-BoldMT', 'Arial', sans-serif;font-weight:700;font-size:18px;fill:rgb(24,95,165);">covariate</text>
            <g transform="matrix(18,0,0,18,201.621094,0)">
            </g>
            <text x="77.546px" y="0px" style="font-family:'ArialMT', 'Arial', sans-serif;font-size:18px;fill:rgb(24,95,165);">group counts</text>
        </g>
    </g>
    <g id="Row-distrubution" serif:id="Row distrubution" transform="matrix(1,0,0,1,-74.175681,-63.439312)">
        <g transform="matrix(1.727554,0,0,1.160714,-2.477582,146.08765)">
            <path d="M280,212.892L280,255.108C280,258.912 277.925,262 275.369,262L64.631,262C62.075,262 60,258.912 60,255.108L60,212.892C60,209.088 62.075,206 64.631,206L275.369,206C277.925,206 280,209.088 280,212.892Z" style="fill:rgb(230,241,251);stroke:rgb(24,95,165);stroke-width:0.5px;"/>
        </g>
        <g transform="matrix(1,0,0,1,291.149535,436.455182)">
            <g transform="matrix(18,0,0,18,179.099121,0)">
            </g>
            <text x="-179.099px" y="0px" style="font-family:'ArialMT', 'Arial', sans-serif;font-size:18px;fill:rgb(24,95,165);">Same proportional distribution logic as plates</text>
        </g>
        <g transform="matrix(1,0,0,1,290.685179,413.332896)">
            <text x="-90.041px" y="0px" style="font-family:'ArialMT', 'Arial', sans-serif;font-size:24px;fill:rgb(12,68,124);">Row distribution*</text>
        </g>
    </g>
    <g id="Placement-within-rows" serif:id="Placement within rows" transform="matrix(1,0,0,1,-74.175681,14.030776)">
        <g transform="matrix(1.529662,0,0,1.423329,150.523273,177.124517)">
            <path d="M280,359.621L280,396.379C280,399.481 277.657,402 274.77,402L65.23,402C62.343,402 60,399.481 60,396.379L60,359.621C60,356.519 62.343,354 65.23,354L274.77,354C277.657,354 280,356.519 280,359.621Z" style="fill:rgb(238,237,254);stroke:rgb(24,95,165);stroke-width:0.5px;"/>
        </g>
        <g transform="matrix(1,0,0,1,410.102904,712.838666)">
            <g transform="matrix(24,0,0,24,119.378906,0)">
            </g>
            <text x="-119.379px" y="0px" style="font-family:'ArialMT', 'Arial', sans-serif;font-size:24px;fill:rgb(70,63,144);">Placement within rows</text>
        </g>
        <g transform="matrix(1,0,0,1,409.25,730.838666)">
            <text x="-158.572px" y="0px" style="font-family:'ArialMT', 'Arial', sans-serif;font-size:18px;fill:rgb(70,63,144);">Minimize clustering of</text>
            <text x="19.485px" y="0px" style="font-family:'Arial-BoldMT', 'Arial', sans-serif;font-weight:700;font-size:18px;fill:rgb(70,63,144);">covariate</text>
            <g transform="matrix(18,0,0,18,158.572266,0)">
            </g>
            <text x="103.535px" y="0px" style="font-family:'ArialMT', 'Arial', sans-serif;font-size:18px;fill:rgb(70,63,144);">groups</text>
        </g>
    </g>
    <g id="Distribute-QC-Samples" serif:id="Distribute QC Samples" transform="matrix(1,0,0,1,16.133066,-32.061721)">
        <g transform="matrix(1.464672,0,0,1.354167,-356.968693,-11.551089)">
            <path d="M760,211.908L760,248.092C760,251.353 757.553,254 754.538,254L545.462,254C542.447,254 540,251.353 540,248.092L540,211.908C540,208.647 542.447,206 545.462,206L754.538,206C757.553,206 760,208.647 760,211.908Z" style="fill:rgb(225,245,238);stroke:rgb(15,110,86);stroke-width:0.5px;"/>
        </g>
        <g transform="matrix(1,0,0,1,595.605288,295.302752)">
            <text x="-120.035px" y="0px" style="font-family:'ArialMT', 'Arial', sans-serif;font-size:24px;fill:rgb(8,80,65);">Distribute QC samples</text>
        </g>
        <g transform="matrix(1,0,0,1,595.721011,318.302752)">
            <text x="-149.572px" y="0px" style="font-family:'ArialMT', 'Arial', sans-serif;font-size:18px;fill:rgb(15,110,86);">Proportionally across plates and rows</text>
        </g>
    </g>
    <g id="Plate-assignment--repeated-measures-" serif:id="Plate assignment (repeated measures)" transform="matrix(1,0,0,1,16.133066,-24.773942)">
        <g transform="matrix(1.464672,0,0,1.354167,-356.968693,-21.803911)">
            <path d="M760,277.908L760,314.092C760,317.353 757.553,320 754.538,320L545.462,320C542.447,320 540,317.353 540,314.092L540,277.908C540,274.647 542.447,272 545.462,272L754.538,272C757.553,272 760,274.647 760,277.908Z" style="fill:rgb(225,245,238);stroke:rgb(15,110,86);stroke-width:0.5px;"/>
        </g>
        <g transform="matrix(1,0,0,1,596.351363,372.302752)">
            <g transform="matrix(24,0,0,24,134.742188,0)">
            </g>
            <text x="-134.742px" y="0px" style="font-family:'ArialMT', 'Arial', sans-serif;font-size:24px;fill:rgb(8,80,65);">Subject-plate assignment</text>
        </g>
        <g transform="matrix(1,0,0,1,596.351363,396.302752)">
            <text x="-145.564px" y="0px" style="font-family:'Arial-BoldMT', 'Arial', sans-serif;font-weight:700;font-size:18px;fill:rgb(15,110,86);">Subject</text>
            <g transform="matrix(18,0,0,18,106.558594,0)">
            </g>
            <g transform="matrix(18,0,0,18,111.55957,0)">
            </g>
            <text x="-75.551px" y="0px" style="font-family:'ArialMT', 'Arial', sans-serif;font-size:18px;fill:rgb(15,110,86);">groups placed, largest ﬁrst</text>
            <g transform="matrix(18,0,0,18,145.564453,0)">
            </g>
            <text x="135.554px" y="0px" style="font-family:'ArialMT', 'Arial', sans-serif;font-size:18px;fill:rgb(8,80,65);">†</text>
        </g>
    </g>
    <g id="Grouping-Level" serif:id="Grouping Level" transform="matrix(1,0,0,1,-62.267663,14.030776)">
        <g transform="matrix(1.19224,0,0,1,-100.487008,53.153249)">
            <path d="M740,366C740,375.934 733.235,384 724.902,384L575.098,384C566.765,384 560,375.934 560,366C560,356.066 566.765,348 575.098,348L724.902,348C733.235,348 740,356.066 740,366Z" style="fill:rgb(255,248,230);stroke:rgb(160,120,20);stroke-width:0.5px;"/>
        </g>
        <g transform="matrix(1,0,0,1,674.433751,426.364186)">
            <text x="-84.053px" y="0px" style="font-family:'ArialMT', 'Arial', sans-serif;font-size:24px;fill:rgb(120,80,0);">Grouping level?</text>
        </g>
    </g>
    <g transform="matrix(1,0,0,1,647.023744,497.449707)">
        <text x="-50.571px" y="0px" style="font-family:'Arial-BoldMT', 'Arial', sans-serif;font-weight:700;font-size:20px;fill:rgb(61,61,58);">Same Row</text>
    </g>
    <g transform="matrix(1,0,0,1,340.199772,497.449707)">
        <text x="-53.364px" y="0px" style="font-family:'Arial-BoldMT', 'Arial', sans-serif;font-weight:700;font-size:20px;fill:rgb(61,61,58);">Same Plate</text>
    </g>
    <g id="Layout-plan-search" serif:id="Layout plan search" transform="matrix(1,0,0,1,205.679918,2.255772)">
        <g transform="matrix(1.335825,0,0,1.354167,-275.249532,-62.155581)">
            <path d="M630,439.908L630,476.092C630,479.353 627.317,482 624.011,482L415.989,482C412.683,482 410,479.353 410,476.092L410,439.908C410,436.647 412.683,434 415.989,434L624.011,434C627.317,434 630,436.647 630,439.908Z" style="fill:rgb(225,245,238);stroke:rgb(15,110,86);stroke-width:0.5px;"/>
        </g>
        <g transform="matrix(1,0,0,1,420.314903,551.367205)">
            <g transform="matrix(24,0,0,24,101.402344,0)">
            </g>
            <text x="-101.402px" y="0px" style="font-family:'ArialMT', 'Arial', sans-serif;font-size:24px;fill:rgb(8,80,65);">Layout plan search</text>
        </g>
        <g transform="matrix(1,0,0,1,419.997032,573.639178)">
            <text x="-133.572px" y="0px" style="font-family:'ArialMT', 'Arial', sans-serif;font-size:18px;fill:rgb(15,110,86);">Find highest-scoring valid layout</text>
            <g transform="matrix(18,0,0,18,133.571777,0)">
            </g>
            <text x="123.561px" y="0px" style="font-family:'ArialMT', 'Arial', sans-serif;font-size:18px;fill:rgb(8,80,65);">‡</text>
        </g>
    </g>
    <g id="Group-Assignment" serif:id="Group Assignment" transform="matrix(1,0,0,1,160.903192,45.350567)">
        <g transform="matrix(1.335909,0,0,1.354167,-232.610333,-101.780581)">
            <path d="M630,505.908L630,542.092C630,545.353 627.317,548 624.012,548L415.988,548C412.683,548 410,545.353 410,542.092L410,505.908C410,502.647 412.683,500 415.988,500L624.012,500C627.317,500 630,502.647 630,505.908Z" style="fill:rgb(225,245,238);stroke:rgb(15,110,86);stroke-width:0.5px;"/>
        </g>
        <g transform="matrix(1,0,0,1,464.6053,604.302752)">
            <text x="-128.057px" y="0px" style="font-family:'ArialMT', 'Arial', sans-serif;font-size:24px;fill:rgb(8,80,65);">Subject-row assignment</text>
        </g>
        <g transform="matrix(1,0,0,1,465.107742,627.302752)">
            <text x="-116.055px" y="0px" style="font-family:'ArialMT', 'Arial', sans-serif;font-size:18px;fill:rgb(15,110,86);">Minimize</text>
            <text x="-40.047px" y="0px" style="font-family:'Arial-BoldMT', 'Arial', sans-serif;font-weight:700;font-size:18px;fill:rgb(15,110,86);">covariate</text>
            <text x="44.002px" y="0px" style="font-family:'ArialMT', 'Arial', sans-serif;font-size:18px;fill:rgb(15,110,86);">deviation</text>
        </g>
    </g>
    <g id="Row-Distribusion--repeated-measures-" serif:id="Row Distribusion (repeated-measures)" transform="matrix(1,0,0,1,-394.511199,39.131694)">
        <g transform="matrix(1.31512,0,0,1.354167,-350.887449,-99.031503)">
            <path d="M900,439.908L900,476.092C900,479.353 897.274,482 893.917,482L686.083,482C682.726,482 680,479.353 680,476.092L680,439.908C680,436.647 682.726,434 686.083,434L893.917,434C897.274,434 900,436.647 900,439.908Z" style="fill:rgb(225,245,238);stroke:rgb(15,110,86);stroke-width:0.5px;"/>
        </g>
        <g transform="matrix(1,0,0,1,688.540092,517.645581)">
            <text x="-90.041px" y="0px" style="font-family:'ArialMT', 'Arial', sans-serif;font-size:24px;fill:rgb(8,80,65);">Row distribution*</text>
        </g>
        <g transform="matrix(1,0,0,1,688.727592,538.138745)">
            <text x="-131.581px" y="0px" style="font-family:'ArialMT', 'Arial', sans-serif;font-size:18px;fill:rgb(15,110,86);">Proportional per</text>
            <text x="1.494px" y="0px" style="font-family:'Arial-BoldMT', 'Arial', sans-serif;font-weight:700;font-size:18px;fill:rgb(15,110,86);">covariate</text>
            <text x="85.544px" y="0px" style="font-family:'ArialMT', 'Arial', sans-serif;font-size:18px;fill:rgb(15,110,86);">group</text>
        </g>
    </g>
    <g id="Quality-Scoring" serif:id="Quality Scoring" transform="matrix(1,0,0,1,-70.621682,14.249649)">
        <g id="Quality-Scoring1" serif:id="Quality Scoring">
            <g transform="matrix(1,0,0,1.422357,0,-314.458273)">
                <path d="M510,775.624L510,812.376C510,815.48 506.415,818 502,818L318,818C313.585,818 310,815.48 310,812.376L310,775.624C310,772.52 313.585,770 318,770L502,770C506.415,770 510,772.52 510,775.624Z" style="fill:rgb(238,237,254);stroke:rgb(83,74,183);stroke-width:0.5px;"/>
            </g>
            <g transform="matrix(1,0,0,1,410.287109,810.756429)">
                <text x="-79.365px" y="0px" style="font-family:'ArialMT', 'Arial', sans-serif;font-size:24px;fill:rgb(60,52,137);">Quality scoring</text>
            </g>
            <g transform="matrix(1,0,0,1,409.942871,835.304769)">
                <text x="-81.299px" y="0px" style="font-family:'ArialMT', 'Arial', sans-serif;font-size:18px;fill:rgb(83,74,183);">Balance + clustering</text>
            </g>
        </g>
    </g>
    <g id="Final-plate-layout" serif:id="Final plate layout" transform="matrix(1,0,0,1,-77.633478,27.178876)">
        <g transform="matrix(1.141835,0,0,1.347735,-51.140498,-270.880802)">
            <path d="M510,851.936L510,876.064C510,879.34 506.861,882 502.994,882L317.006,882C313.139,882 310,879.34 310,876.064L310,851.936C310,848.66 313.139,846 317.006,846L502.994,846C506.861,846 510,848.66 510,851.936Z" style="fill:rgb(241,239,232);stroke:rgb(95,94,90);stroke-width:0.5px;"/>
        </g>
        <g transform="matrix(1,0,0,1,416.115311,899.626354)">
            <text x="-90.721px" y="0px" style="font-family:'ArialMT', 'Arial', sans-serif;font-size:24px;fill:rgb(68,68,65);">Final plate layout</text>
        </g>
    </g>
</svg>
